<?xml version="1.0" encoding="UTF-8"?>
<svg width="270px" height="270px" viewBox="0 0 270 270" version="1.1" xmlns="http://www.w3.org/2000/svg" xmlns:xlink="http://www.w3.org/1999/xlink">
    <!-- Generator: Sketch 64 (93537) - https://sketch.com -->
    <title>covic</title>
    <desc>Created with Sketch.</desc>
    <g id="course-ad" stroke="none" stroke-width="1" fill="none" fill-rule="evenodd">
        <ellipse id="Oval" fill="#E44450" fill-rule="nonzero" transform="translate(149.241115, 116.537100) rotate(-7.000000) translate(-149.241115, -116.537100) " cx="149.241115" cy="116.5371" rx="12.0955214" ry="12.1050416"></ellipse>
        <ellipse id="Oval" fill="#E44450" fill-rule="nonzero" transform="translate(146.900074, 165.738829) rotate(-7.000000) translate(-146.900074, -165.738829) " cx="146.900074" cy="165.738829" rx="8.19374033" ry="8.20018947"></ellipse>
        <path d="M107.102386,126.299348 C100.422295,126.299348 95.0070107,131.719025 95.0070107,138.404535 C95.0070107,145.090045 100.422295,150.509722 107.102386,150.509722 C113.782478,150.509722 119.197762,145.090045 119.197762,138.404535 C119.190263,131.722136 113.779369,126.306853 107.102386,126.299348 L107.102386,126.299348 Z" id="Shape" fill="#E44450" fill-rule="nonzero" transform="translate(107.102386, 138.404535) rotate(-7.000000) translate(-107.102386, -138.404535) "></path>
        <ellipse id="Oval" fill="#E44450" fill-rule="nonzero" transform="translate(115.686201, 108.727302) rotate(-7.000000) translate(-115.686201, -108.727302) " cx="115.686201" cy="108.727302" rx="4.29195922" ry="4.29533734"></ellipse>
        <ellipse id="Oval" fill="#E44450" fill-rule="nonzero" transform="translate(164.848051, 143.090414) rotate(-7.000000) translate(-164.848051, -143.090414) " cx="164.848051" cy="143.090414" rx="4.29195922" ry="4.29533734"></ellipse>
        <ellipse id="Oval" fill="#E44450" fill-rule="nonzero" transform="translate(117.246895, 157.148051) rotate(-7.000000) translate(-117.246895, -157.148051) " cx="117.246895" cy="157.148051" rx="4.29195922" ry="4.29533734"></ellipse>
        <path d="M239.631981,118.749665 C232.280762,118.758896 225.862614,123.733917 224.015182,130.855011 L211.303318,130.855011 C210.923114,123.506642 209.481206,116.252158 207.02252,109.317584 L222.667038,102.832145 C224.966822,105.382219 228.236726,106.840235 231.669112,106.846076 C236.559375,106.839676 240.964653,103.886801 242.832124,99.3634683 C244.699594,94.8401351 243.66179,89.6364091 240.20232,86.1771838 C236.74285,82.7179585 231.542441,81.6839132 227.024441,83.5569045 L227.024441,83.5569045 C222.293557,85.5251471 219.311398,90.2591241 219.576639,95.3797918 L203.930105,101.866239 C200.751689,95.2360441 196.640078,89.0960483 191.720708,83.6335717 L200.736389,74.6105499 C207.955723,78.8695767 217.231412,76.8851796 222.079969,70.0444054 C226.928526,63.2036312 225.734126,53.7862278 219.331627,48.3747384 C212.929128,42.963249 203.452218,43.3610999 197.525035,49.2902025 L197.525035,49.2902025 C192.333559,54.4993589 191.310189,62.5592882 195.034874,68.9023752 L186.019193,77.925397 C180.56116,73.002022 174.426159,68.887063 167.801358,65.7060596 L174.281017,50.0518305 C174.48916,50.0624227 174.696799,50.0689797 174.903935,50.0689797 C180.97582,50.0770448 186.112667,45.5785744 186.91059,39.5544398 C187.708513,33.5303051 183.92019,27.8477312 178.055919,26.2722249 C172.191648,24.6967187 166.069103,27.7166198 163.745334,33.3308178 L163.745334,33.3308178 C161.79081,38.070424 163.026588,43.5281044 166.831702,46.9614367 L160.356075,62.6111263 C153.42704,60.151126 146.17846,58.7087244 138.836169,58.3288604 L138.836169,45.6066468 C146.699479,43.5746959 151.826432,36.0079685 150.803127,27.9449458 C149.779822,19.8819231 142.925528,13.8382527 134.804337,13.8382527 C126.683145,13.8382527 119.828852,19.8819231 118.805547,27.9449458 C117.782242,36.0079685 122.909194,43.5746959 130.772504,45.6066468 L130.772504,58.3288604 C123.430114,58.7093743 116.181531,60.152456 109.252598,62.6131439 L102.776972,46.9614367 C107.350384,42.8443202 108.107835,35.9475919 104.537164,30.9345729 C100.966493,25.921554 94.20509,24.3890765 88.8247745,27.373347 C83.444459,30.3576175 81.1590605,36.9080354 83.5138838,42.5954421 L83.5138838,42.5954421 C85.3920862,47.1199999 89.8067137,50.0684664 94.702219,50.067971 C94.9093544,50.067971 95.1169938,50.0614139 95.3251371,50.0508217 L101.804796,65.7075728 C95.1799945,68.8885762 89.0449936,73.0035352 83.5869608,77.9269101 L74.5737993,68.9043927 C78.8293613,61.6791814 76.8465785,52.39594 70.0113694,47.5434357 C63.1761604,42.6909315 53.7664181,43.8863039 48.3593311,50.2940158 C42.952244,56.7017276 43.3497712,66.186353 49.2740504,72.1183619 L49.2740504,72.1183619 C54.4797916,77.3123826 62.5319655,78.3364339 68.8702683,74.6105499 L77.8859497,83.6335717 C72.96658,89.0960483 68.8549686,95.2360441 65.6765529,101.866239 L50.0350588,95.3808006 C50.3601311,89.233043 46.0230281,83.8202488 39.9563406,82.8023519 C33.889653,81.784455 28.0258427,85.4856928 26.329804,91.4034233 C24.6337654,97.3211538 27.6457487,103.570364 33.3291609,105.925565 L33.3291609,105.925565 C34.7905084,106.532897 36.357225,106.845707 37.9395614,106.846076 C41.371562,106.840098 44.6411335,105.382515 46.9411314,102.833154 L62.5841374,109.317584 C60.1261384,116.252261 58.6849102,123.506742 58.3053552,130.855011 L45.5934914,130.855011 C43.5631934,122.985299 36.0026218,117.854172 27.9461585,118.87831 C19.8896952,119.902448 13.8509413,126.762322 13.8509413,134.890126 C13.8509413,143.01793 19.8896952,149.877804 27.9461585,150.901942 C36.0026218,151.92608 43.5631934,146.794953 45.5934914,138.925241 L58.3053552,138.925241 C58.6855595,146.273609 60.1274673,153.528094 62.5861533,160.462668 L46.9471791,166.943567 C42.833412,162.366431 35.9422943,161.608363 30.9333535,165.181942 C25.9244127,168.75552 24.3931819,175.522428 27.3750246,180.907124 C30.3568674,186.29182 36.9019564,188.579079 42.5847364,186.222338 L42.5847364,186.222338 C47.3164302,184.254971 50.2996783,179.521068 50.0350588,174.399956 L65.6805848,167.914012 C68.8590004,174.544208 72.9706118,180.684203 77.8899815,186.14668 L68.8737961,195.169702 C61.6565493,190.91645 52.3871357,192.902589 47.5424669,199.740323 C42.697798,206.578056 43.8916554,215.989705 50.2898429,221.398971 C56.6880304,226.808238 66.1592823,226.41327 72.0856547,220.490049 L72.0856547,220.490049 C77.2771302,215.280893 78.3005006,207.220964 74.5758152,200.877877 L83.5914966,191.854855 C89.0495294,196.77823 95.1845303,200.893189 101.809332,204.074192 L95.326649,219.728421 C89.1839387,219.403338 83.7757595,223.744109 82.7588704,229.815706 C81.7419812,235.887303 85.4402919,241.75574 91.353177,243.453053 C97.2660621,245.150367 103.51009,242.135911 105.863339,236.447921 L105.863339,236.447921 C107.817863,231.708315 106.582086,226.250634 102.776972,222.817302 L109.252598,207.169125 C116.181634,209.629126 123.430214,211.071527 130.772504,211.451391 L130.772504,224.173605 C122.909194,226.205556 117.782242,233.772283 118.805547,241.835306 C119.828852,249.898329 126.683145,255.941999 134.804337,255.941999 C142.925528,255.941999 149.779822,249.898329 150.803127,241.835306 C151.826432,233.772283 146.699479,226.205556 138.836169,224.173605 L138.836169,211.451391 C146.17856,211.070877 153.427142,209.627796 160.356075,207.167108 L166.833718,222.818815 C162.260306,226.935932 161.502854,233.83266 165.073526,238.845679 C168.644197,243.858698 175.4056,245.391175 180.785915,242.406905 C186.166231,239.422634 188.451629,232.872216 186.096806,227.18481 L186.096806,227.18481 C184.130909,222.448436 179.399733,219.462558 174.282025,219.728421 L167.801358,204.072175 C174.426159,200.891171 180.56116,196.776212 186.019193,191.852837 L195.034874,200.875859 C190.779312,208.10107 192.762095,217.384312 199.597304,222.236816 C206.432513,227.08932 215.842256,225.893948 221.249343,219.486236 C226.65643,213.078524 226.258902,203.593899 220.334623,197.66189 L220.334623,197.66189 C215.129786,192.466439 207.076718,191.442248 200.738909,195.169702 L191.722724,186.14668 C196.642094,180.684203 200.753705,174.544208 203.932121,167.914012 L219.573615,174.399956 C219.248796,180.547667 223.586036,185.96025 229.652693,186.977967 C235.719351,187.995684 241.583014,184.294362 243.278946,178.376663 C244.974879,172.458964 241.962876,166.209852 236.279513,163.854687 L236.279513,163.854687 C231.543709,161.8992 226.090841,163.135899 222.659983,166.943567 L207.024536,160.462668 C209.482535,153.527991 210.923763,146.273509 211.303318,138.925241 L224.015182,138.925241 C226.110361,147.046441 234.071624,152.208178 242.333758,150.80221 C250.595893,149.396242 256.405151,141.891176 255.70065,133.533324 C254.996149,125.175472 248.012698,118.750487 239.631981,118.749665 Z M230.109297,91.0137972 C232.166281,90.1610398 234.524549,91.1384092 235.376931,93.1969352 C236.229314,95.2554611 235.253105,97.6158006 233.196386,98.4691962 C231.139666,99.3225918 228.781096,98.3459541 227.928076,96.2876927 L227.928076,96.284162 C227.079436,94.2259739 228.05506,91.8686281 230.109297,91.0137972 Z M171.194145,36.4186897 C172.046327,34.3598789 174.404764,33.3822376 176.461931,34.2350378 C178.519098,35.087838 179.496031,37.4481592 178.644,39.5070327 C177.791969,41.5659062 175.433604,42.5437209 173.376374,41.691072 C171.320814,40.836451 170.344872,38.4774357 171.195153,36.4186897 L171.194145,36.4186897 Z M90.9637023,39.5100922 C90.1116386,37.4514341 91.0882129,35.091246 93.1450642,34.2381695 C95.2019156,33.385093 97.5603349,34.3620966 98.4130362,36.4204903 C99.2657376,38.478884 98.2898944,40.8393749 96.2333074,41.6930895 L96.2297795,41.6930895 C94.1732659,42.54242 91.8178377,41.5660019 90.9637023,39.5100922 Z M36.4130088,98.4732119 C34.3558728,97.6203361 33.3790269,95.259979 34.2311333,93.2011368 C35.0832398,91.1422946 37.4416408,90.1645667 39.4988394,91.0172912 C41.5560379,91.8700158 42.5330572,94.230301 41.6811019,96.2892059 C40.8255588,98.3448181 38.469385,99.3200436 36.4130088,98.4696812 L36.4130088,98.4732119 Z M39.4993766,178.772003 C37.4423547,179.624892 35.083956,178.647525 34.2315541,176.588914 C33.3791523,174.530303 34.3554865,172.169886 36.412337,171.316583 C38.4691874,170.463281 40.8277825,171.440172 41.6805979,173.498612 L41.6805979,173.501638 C42.5258472,175.557595 41.5520982,177.910653 39.5018964,178.766455 L39.4993766,178.772003 Z M98.4145288,233.36711 C97.5623467,235.425921 95.2039098,236.403562 93.1467426,235.550762 C91.0895753,234.697962 90.1126427,232.337641 90.9646736,230.278767 C91.8167044,228.219894 94.1750696,227.242079 96.2322994,228.094728 C98.2845939,228.949553 99.2598166,231.304351 98.4135208,233.361562 L98.4145288,233.36711 Z M178.647995,230.27823 C179.500059,232.336888 178.523485,234.697076 176.466633,235.550152 C174.409782,236.403229 172.051363,235.426225 171.198661,233.367832 C170.34596,231.309438 171.321803,228.948947 173.37839,228.095232 L173.381918,228.095232 C175.438711,227.243613 177.795952,228.221234 178.647995,230.279238 L178.647995,230.27823 Z M231.658025,171.004373 C233.433508,171.006354 234.998745,172.170468 235.512771,173.8713 C236.026797,175.572131 235.368612,177.409304 233.891842,178.395751 C232.415071,179.382198 230.467347,179.285709 229.095134,178.158126 C227.72292,177.030543 227.249236,175.137298 227.92858,173.495585 C228.549301,171.982964 230.024148,170.997802 231.658025,171.004373 L231.658025,171.004373 Z M203.22655,54.9988816 L203.22655,54.9988816 C206.375109,51.8473647 211.480146,51.8467002 214.629524,54.9973975 C217.778903,58.1480948 217.780256,63.2572873 214.632547,66.4096554 C211.484838,69.5620234 206.379803,69.564068 203.229574,66.4142223 L203.224534,66.4096828 C200.082792,63.2555768 200.083694,58.1518755 203.22655,54.9988816 L203.22655,54.9988816 Z M126.740672,29.9771328 C126.740672,25.5200677 130.350898,21.9069025 134.804337,21.9069025 C139.257776,21.9069025 142.868002,25.5200677 142.868002,29.9771328 C142.868002,34.4341979 139.257776,38.047363 134.804337,38.047363 C130.353085,38.0420823 126.745948,34.4320087 126.740672,29.9771328 L126.740672,29.9771328 Z M54.9780854,66.4122047 L54.9780854,66.4122047 C51.8291323,63.2610818 51.8284684,58.1518891 54.9766025,54.9999466 C58.1247366,51.848004 63.2297728,51.8466495 66.3795763,54.996921 C69.5293799,58.1471926 69.5314228,63.2563849 66.3841395,66.4091784 L66.3796037,66.4142223 C63.2279492,69.558245 58.1286289,69.5573426 54.9780854,66.4122047 L54.9780854,66.4122047 Z M29.9766922,142.960356 C25.523253,142.960356 21.9130272,139.347191 21.9130272,134.890126 C21.9130272,130.433061 25.523253,126.819896 29.9766922,126.819896 C34.4301314,126.819896 38.0403572,130.433061 38.0403572,134.890126 C38.0350807,139.345002 34.427944,142.955075 29.9766922,142.960356 L29.9766922,142.960356 Z M66.3821236,214.78137 L66.3821236,214.78137 C63.2341207,217.929965 58.1320987,217.929352 54.9848521,214.779999 C51.8376056,211.630647 51.836253,206.524471 54.9818306,203.373448 C58.1274082,200.222426 63.2294292,200.219105 66.3790998,203.366029 L66.3841395,203.370569 C69.5258815,206.524675 69.5249799,211.628376 66.3821236,214.78137 Z M142.868002,239.803119 C142.868002,244.260184 139.257776,247.873349 134.804337,247.873349 C130.350898,247.873349 126.740672,244.260184 126.740672,239.803119 C126.740672,235.346054 130.350898,231.732889 134.804337,231.732889 C139.255589,231.738169 142.862725,235.348243 142.868002,239.803119 L142.868002,239.803119 Z M134.804337,203.487083 C97.0104431,203.487083 66.2631846,172.714791 66.2631846,134.890126 C66.2631846,97.0654611 97.0104431,66.2931688 134.804337,66.2931688 C172.598231,66.2931688 203.345489,97.0654611 203.345489,134.890126 C203.345489,172.714791 172.598231,203.487083 134.804337,203.487083 Z M214.630588,203.368047 L214.630588,203.368047 C217.779541,206.51917 217.780205,211.628363 214.632071,214.780305 C211.483937,217.932248 206.378901,217.933602 203.229097,214.783331 C200.079294,211.633059 200.077251,206.523867 203.224534,203.371073 L203.22907,203.366029 C206.379825,200.220617 211.479833,200.220617 214.630588,203.366029 L214.630588,203.368047 Z M239.631981,142.960356 C235.178542,142.960356 231.568316,139.347191 231.568316,134.890126 C231.568316,130.433061 235.178542,126.819896 239.631981,126.819896 C244.085421,126.819896 247.695646,130.433061 247.695646,134.890126 C247.69037,139.345002 244.083233,142.955075 239.631981,142.960356 L239.631981,142.960356 Z" id="Shape" fill="#E44450" fill-rule="nonzero" transform="translate(134.804699, 134.890126) rotate(-7.000000) translate(-134.804699, -134.890126) "></path>
    </g>
</svg>